<svg t="1640995200000" class="icon" viewBox="0 0 1024 1024" version="1.1" xmlns="http://www.w3.org/2000/svg" p-id="2345" width="128" height="128">
  <path d="M874.666667 181.333333a64 64 0 0 1 64 64v533.333334a64 64 0 0 1-64 64H149.333333a64 64 0 0 1-64-64V245.333333a64 64 0 0 1 64-64h725.333334z m-362.666667 298.666667L177.777778 266.666667H149.333333a21.333333 21.333333 0 0 0-21.333333 21.333333v490.666667c0 11.776 9.557333 21.333333 21.333333 21.333333h725.333334a21.333333 21.333333 0 0 0 21.333333-21.333333V288c0-11.776-9.557333-21.333333-21.333333-21.333333h-28.444445L512 480z m0-85.333333L845.222222 181.333333H178.777778L512 394.666667z" p-id="2346"></path>
</svg>
